<?xml version="1.0" encoding="UTF-8" standalone="no"?>
<!DOCTYPE svg PUBLIC "-//W3C//DTD SVG 1.1//EN"
 "http://www.w3.org/Graphics/SVG/1.1/DTD/svg11.dtd">
<!-- Generated by graphviz version 2.43.0 (0)
 -->
<!-- Title: G Pages: 1 -->
<svg width="850pt" height="364pt"
 viewBox="0.00 0.00 849.50 364.00" xmlns="http://www.w3.org/2000/svg" xmlns:xlink="http://www.w3.org/1999/xlink">
<g id="graph0" class="graph" transform="scale(1 1) rotate(0) translate(18 346)">
<title>G</title>
<polygon fill="white" stroke="transparent" points="-18,18 -18,-346 831.5,-346 831.5,18 -18,18"/>
<g id="clust1" class="cluster">
<title>cluster_local</title>
<polygon fill="white" stroke="#9db4c5" points="8,-17 8,-320 252,-320 252,-17 8,-17"/>
<text text-anchor="middle" x="130" y="-304.8" font-family="DejaVu Sans" font-size="14.00">УСТРОЙСТВО ВЛАДЕЛЬЦА</text>
</g>
<g id="clust2" class="cluster">
<title>cluster_server</title>
<polygon fill="white" stroke="#9db4c5" points="260,-8 260,-203 566,-203 566,-8 260,-8"/>
<text text-anchor="middle" x="413" y="-187.8" font-family="DejaVu Sans" font-size="14.00">СЕРВЕР ДОСТУПА</text>
</g>
<!-- ui -->
<g id="node1" class="node">
<title>ui</title>
<path fill="#edf4f8" stroke="black" d="M226,-289C226,-289 46,-289 46,-289 40,-289 34,-283 34,-277 34,-277 34,-265 34,-265 34,-259 40,-253 46,-253 46,-253 226,-253 226,-253 232,-253 238,-259 238,-265 238,-265 238,-277 238,-277 238,-283 232,-289 226,-289"/>
<text text-anchor="middle" x="136" y="-267.3" font-family="DejaVu Sans" font-size="14.00">Интерфейс приложения</text>
</g>
<!-- calc -->
<g id="node2" class="node">
<title>calc</title>
<path fill="#edf4f8" stroke="black" d="M231.5,-178C231.5,-178 32.5,-178 32.5,-178 26.5,-178 20.5,-172 20.5,-166 20.5,-166 20.5,-142 20.5,-142 20.5,-136 26.5,-130 32.5,-130 32.5,-130 231.5,-130 231.5,-130 237.5,-130 243.5,-136 243.5,-142 243.5,-142 243.5,-166 243.5,-166 243.5,-172 237.5,-178 231.5,-178"/>
<text text-anchor="middle" x="132" y="-157.8" font-family="DejaVu Sans" font-size="14.00">Дневник и расчёты</text>
<text text-anchor="middle" x="132" y="-142.8" font-family="DejaVu Sans" font-size="14.00">Локальные версии данных</text>
</g>
<!-- ui&#45;&gt;calc -->
<g id="edge1" class="edge">
<title>ui&#45;&gt;calc</title>
<path fill="none" stroke="#466079" d="M135.39,-252.53C134.8,-235.55 133.89,-209.31 133.16,-188.32"/>
<polygon fill="#466079" stroke="#466079" points="136.65,-188.08 132.81,-178.21 129.66,-188.32 136.65,-188.08"/>
</g>
<!-- api -->
<g id="node4" class="node">
<title>api</title>
<path fill="#edf4f8" stroke="black" d="M524.5,-172C524.5,-172 341.5,-172 341.5,-172 335.5,-172 329.5,-166 329.5,-160 329.5,-160 329.5,-148 329.5,-148 329.5,-142 335.5,-136 341.5,-136 341.5,-136 524.5,-136 524.5,-136 530.5,-136 536.5,-142 536.5,-148 536.5,-148 536.5,-160 536.5,-160 536.5,-166 530.5,-172 524.5,-172"/>
<text text-anchor="middle" x="433" y="-150.3" font-family="DejaVu Sans" font-size="14.00">Регистрация и подписка</text>
</g>
<!-- ui&#45;&gt;api -->
<g id="edge4" class="edge">
<title>ui&#45;&gt;api</title>
<path fill="none" stroke="#466079" d="M180.14,-252.91C233.15,-232.38 322.02,-197.97 379.05,-175.89"/>
<polygon fill="#466079" stroke="#466079" points="380.55,-179.06 388.61,-172.19 378.03,-172.53 380.55,-179.06"/>
<text text-anchor="middle" x="350" y="-226.2" font-family="DejaVu Sans" font-size="11.00">Вход и право доступа</text>
<text text-anchor="middle" x="350" y="-214.2" font-family="DejaVu Sans" font-size="11.00">Без дневника и фото</text>
</g>
<!-- model -->
<g id="node3" class="node">
<title>model</title>
<path fill="#edf4f8" stroke="black" d="M231.5,-73C231.5,-73 28.5,-73 28.5,-73 22.5,-73 16.5,-67 16.5,-61 16.5,-61 16.5,-37 16.5,-37 16.5,-31 22.5,-25 28.5,-25 28.5,-25 231.5,-25 231.5,-25 237.5,-25 243.5,-31 243.5,-37 243.5,-37 243.5,-61 243.5,-61 243.5,-67 237.5,-73 231.5,-73"/>
<text text-anchor="middle" x="130" y="-52.8" font-family="DejaVu Sans" font-size="14.00">3D&#45;визуализация</text>
<text text-anchor="middle" x="130" y="-37.8" font-family="DejaVu Sans" font-size="14.00">Фото только на устройстве</text>
</g>
<!-- calc&#45;&gt;model -->
<g id="edge2" class="edge">
<title>calc&#45;&gt;model</title>
<path fill="none" stroke="#466079" d="M131.55,-129.88C131.28,-116.1 130.94,-98.37 130.64,-83.12"/>
<polygon fill="#466079" stroke="#466079" points="134.14,-82.97 130.45,-73.04 127.14,-83.1 134.14,-82.97"/>
</g>
<!-- db -->
<g id="node5" class="node">
<title>db</title>
<path fill="#edf4f8" stroke="black" d="M558,-76C558,-79.31 493.01,-82 413,-82 332.99,-82 268,-79.31 268,-76 268,-76 268,-22 268,-22 268,-18.69 332.99,-16 413,-16 493.01,-16 558,-18.69 558,-22 558,-22 558,-76 558,-76"/>
<path fill="none" stroke="black" d="M558,-76C558,-72.69 493.01,-70 413,-70 332.99,-70 268,-72.69 268,-76"/>
<text text-anchor="middle" x="413" y="-52.8" font-family="DejaVu Sans" font-size="14.00">PostgreSQL</text>
<text text-anchor="middle" x="413" y="-37.8" font-family="DejaVu Sans" font-size="14.00">Учётные записи, платежи, периоды</text>
</g>
<!-- api&#45;&gt;db -->
<g id="edge3" class="edge">
<title>api&#45;&gt;db</title>
<path fill="none" stroke="#466079" d="M429.7,-135.99C427.37,-123.99 424.14,-107.37 421.14,-91.94"/>
<polygon fill="#466079" stroke="#466079" points="424.56,-91.17 419.22,-82.03 417.69,-92.51 424.56,-91.17"/>
</g>
<!-- pay -->
<g id="node6" class="node">
<title>pay</title>
<path fill="#edf4f8" stroke="black" d="M801.5,-73C801.5,-73 588.5,-73 588.5,-73 582.5,-73 576.5,-67 576.5,-61 576.5,-61 576.5,-37 576.5,-37 576.5,-31 582.5,-25 588.5,-25 588.5,-25 801.5,-25 801.5,-25 807.5,-25 813.5,-31 813.5,-37 813.5,-37 813.5,-61 813.5,-61 813.5,-67 807.5,-73 801.5,-73"/>
<text text-anchor="middle" x="695" y="-52.8" font-family="DejaVu Sans" font-size="14.00">Внешний платёжный сервис</text>
<text text-anchor="middle" x="695" y="-37.8" font-family="DejaVu Sans" font-size="14.00">В стенде — имитатор</text>
</g>
<!-- api&#45;&gt;pay -->
<g id="edge5" class="edge">
<title>api&#45;&gt;pay</title>
<path fill="none" stroke="#466079" d="M445.09,-135.8C454.38,-123.91 468.25,-108.72 484,-100 518.17,-81.09 531.96,-90.84 570,-82 578.81,-79.95 587.96,-77.75 597.11,-75.5"/>
<polygon fill="#466079" stroke="#466079" points="598.16,-78.85 607.02,-73.04 596.48,-72.05 598.16,-78.85"/>
<text text-anchor="middle" x="563.5" y="-103.2" font-family="DejaVu Sans" font-size="11.00">Создание и сверка оплаты</text>
</g>
<!-- pay&#45;&gt;api -->
<g id="edge6" class="edge">
<title>pay&#45;&gt;api</title>
<path fill="none" stroke="#466079" stroke-dasharray="5,2" d="M681.25,-73.22C672.1,-86.64 658.85,-102.65 643,-112 614.08,-129.06 579.39,-139.18 546.63,-145.14"/>
<polygon fill="#466079" stroke="#466079" points="545.8,-141.73 536.53,-146.86 546.97,-148.63 545.8,-141.73"/>
<text text-anchor="middle" x="697.5" y="-103.2" font-family="DejaVu Sans" font-size="11.00">Уведомление</text>
</g>
</g>
</svg>
