<?xml version="1.0" encoding="UTF-8" standalone="no"?>
<!DOCTYPE svg PUBLIC "-//W3C//DTD SVG 1.1//EN"
 "http://www.w3.org/Graphics/SVG/1.1/DTD/svg11.dtd">
<!-- Generated by graphviz version 2.43.0 (0)
 -->
<!-- Title: G Pages: 1 -->
<svg width="1300pt" height="227pt"
 viewBox="0.00 0.00 1300.00 227.05" xmlns="http://www.w3.org/2000/svg" xmlns:xlink="http://www.w3.org/1999/xlink">
<g id="graph0" class="graph" transform="scale(1 1) rotate(0) translate(18 209.05)">
<title>G</title>
<polygon fill="white" stroke="transparent" points="-18,18 -18,-209.05 1282,-209.05 1282,18 -18,18"/>
<!-- a -->
<g id="node1" class="node">
<title>a</title>
<path fill="#edf4f8" stroke="black" d="M219,-107.05C219,-107.05 12,-107.05 12,-107.05 6,-107.05 0,-101.05 0,-95.05 0,-95.05 0,-71.05 0,-71.05 0,-65.05 6,-59.05 12,-59.05 12,-59.05 219,-59.05 219,-59.05 225,-59.05 231,-65.05 231,-71.05 231,-71.05 231,-95.05 231,-95.05 231,-101.05 225,-107.05 219,-107.05"/>
<text text-anchor="middle" x="115.5" y="-86.85" font-family="DejaVu Sans" font-size="14.00">Исход создания неизвестен</text>
<text text-anchor="middle" x="115.5" y="-71.85" font-family="DejaVu Sans" font-size="14.00">(creating)</text>
</g>
<!-- a&#45;&gt;a -->
<g id="edge2" class="edge">
<title>a&#45;&gt;a</title>
<path fill="none" stroke="#466079" d="M77.11,-107.22C74.94,-116.91 87.74,-125.05 115.5,-125.05 133.28,-125.05 144.93,-121.71 150.43,-116.76"/>
<polygon fill="#466079" stroke="#466079" points="153.77,-117.81 153.89,-107.22 147.19,-115.42 153.77,-117.81"/>
<text text-anchor="middle" x="115.5" y="-128.25" font-family="DejaVu Sans" font-size="11.00">Повтор с тем же ключом</text>
</g>
<!-- p -->
<g id="node2" class="node">
<title>p</title>
<path fill="#edf4f8" stroke="black" d="M568.5,-133.05C568.5,-133.05 430.5,-133.05 430.5,-133.05 424.5,-133.05 418.5,-127.05 418.5,-121.05 418.5,-121.05 418.5,-97.05 418.5,-97.05 418.5,-91.05 424.5,-85.05 430.5,-85.05 430.5,-85.05 568.5,-85.05 568.5,-85.05 574.5,-85.05 580.5,-91.05 580.5,-97.05 580.5,-97.05 580.5,-121.05 580.5,-121.05 580.5,-127.05 574.5,-133.05 568.5,-133.05"/>
<text text-anchor="middle" x="499.5" y="-112.85" font-family="DejaVu Sans" font-size="14.00">Ожидание оплаты</text>
<text text-anchor="middle" x="499.5" y="-97.85" font-family="DejaVu Sans" font-size="14.00">(pending)</text>
</g>
<!-- a&#45;&gt;p -->
<g id="edge1" class="edge">
<title>a&#45;&gt;p</title>
<path fill="none" stroke="#466079" d="M231.11,-90.85C287.79,-94.71 355.2,-99.29 408.16,-102.9"/>
<polygon fill="#466079" stroke="#466079" points="408,-106.4 418.21,-103.58 408.48,-99.41 408,-106.4"/>
<text text-anchor="middle" x="323" y="-105.25" font-family="DejaVu Sans" font-size="11.00">Создание подтверждено</text>
</g>
<!-- s -->
<g id="node3" class="node">
<title>s</title>
<path fill="#edf4f8" stroke="black" d="M938,-191.05C938,-191.05 768,-191.05 768,-191.05 762,-191.05 756,-185.05 756,-179.05 756,-179.05 756,-155.05 756,-155.05 756,-149.05 762,-143.05 768,-143.05 768,-143.05 938,-143.05 938,-143.05 944,-143.05 950,-149.05 950,-155.05 950,-155.05 950,-179.05 950,-179.05 950,-185.05 944,-191.05 938,-191.05"/>
<text text-anchor="middle" x="853" y="-170.85" font-family="DejaVu Sans" font-size="14.00">Оплата подтверждена</text>
<text text-anchor="middle" x="853" y="-155.85" font-family="DejaVu Sans" font-size="14.00">(succeeded)</text>
</g>
<!-- a&#45;&gt;s -->
<g id="edge6" class="edge">
<title>a&#45;&gt;s</title>
<path fill="none" stroke="#466079" stroke-dasharray="5,2" d="M201.69,-107.09C217.35,-111.07 233.61,-114.91 249,-118.05 420.68,-153.01 624.65,-163.22 745.94,-166.08"/>
<polygon fill="#466079" stroke="#466079" points="745.89,-169.58 755.97,-166.31 746.05,-162.58 745.89,-169.58"/>
<text text-anchor="middle" x="499.5" y="-161.25" font-family="DejaVu Sans" font-size="11.00">Сверка после потери ответа</text>
</g>
<!-- c -->
<g id="node4" class="node">
<title>c</title>
<path fill="#edf4f8" stroke="black" d="M916,-77.05C916,-77.05 790,-77.05 790,-77.05 784,-77.05 778,-71.05 778,-65.05 778,-65.05 778,-41.05 778,-41.05 778,-35.05 784,-29.05 790,-29.05 790,-29.05 916,-29.05 916,-29.05 922,-29.05 928,-35.05 928,-41.05 928,-41.05 928,-65.05 928,-65.05 928,-71.05 922,-77.05 916,-77.05"/>
<text text-anchor="middle" x="853" y="-56.85" font-family="DejaVu Sans" font-size="14.00">Платёж отменён</text>
<text text-anchor="middle" x="853" y="-41.85" font-family="DejaVu Sans" font-size="14.00">(canceled)</text>
</g>
<!-- a&#45;&gt;c -->
<g id="edge7" class="edge">
<title>a&#45;&gt;c</title>
<path fill="none" stroke="#466079" stroke-dasharray="5,2" d="M231.02,-78.38C379.67,-72.31 635.62,-61.87 767.7,-56.49"/>
<polygon fill="#466079" stroke="#466079" points="767.92,-59.98 777.77,-56.07 767.63,-52.99 767.92,-59.98"/>
</g>
<!-- r -->
<g id="node5" class="node">
<title>r</title>
<path fill="#edf4f8" stroke="black" d="M1252,-137.05C1252,-137.05 1130,-137.05 1130,-137.05 1124,-137.05 1118,-131.05 1118,-125.05 1118,-125.05 1118,-101.05 1118,-101.05 1118,-95.05 1124,-89.05 1130,-89.05 1130,-89.05 1252,-89.05 1252,-89.05 1258,-89.05 1264,-95.05 1264,-101.05 1264,-101.05 1264,-125.05 1264,-125.05 1264,-131.05 1258,-137.05 1252,-137.05"/>
<text text-anchor="middle" x="1191" y="-116.85" font-family="DejaVu Sans" font-size="14.00">Полный возврат</text>
<text text-anchor="middle" x="1191" y="-101.85" font-family="DejaVu Sans" font-size="14.00">(refunded)</text>
</g>
<!-- a&#45;&gt;r -->
<g id="edge9" class="edge">
<title>a&#45;&gt;r</title>
<path fill="none" stroke="#466079" stroke-dasharray="5,2" d="M215.88,-59.04C373.06,-24.77 688.07,28.93 950,-20.05 1015.68,-32.33 1086.52,-61.99 1134.07,-84.54"/>
<polygon fill="#466079" stroke="#466079" points="1132.74,-87.78 1143.27,-88.95 1135.76,-81.47 1132.74,-87.78"/>
</g>
<!-- p&#45;&gt;s -->
<g id="edge3" class="edge">
<title>p&#45;&gt;s</title>
<path fill="none" stroke="#466079" d="M580.53,-121.54C626.61,-128.82 685.6,-138.26 738,-147.05 740.65,-147.49 743.33,-147.94 746.04,-148.4"/>
<polygon fill="#466079" stroke="#466079" points="745.48,-151.86 755.92,-150.08 746.65,-144.96 745.48,-151.86"/>
<text text-anchor="middle" x="670" y="-150.25" font-family="DejaVu Sans" font-size="11.00">Доверенная сверка</text>
</g>
<!-- p&#45;&gt;c -->
<g id="edge4" class="edge">
<title>p&#45;&gt;c</title>
<path fill="none" stroke="#466079" d="M580.72,-91.05C587.9,-89.63 595.07,-88.27 602,-87.05 656.97,-77.37 719.17,-68.9 767.77,-62.83"/>
<polygon fill="#466079" stroke="#466079" points="768.43,-66.28 777.93,-61.58 767.57,-59.33 768.43,-66.28"/>
<text text-anchor="middle" x="670" y="-90.25" font-family="DejaVu Sans" font-size="11.00">Отмена подтверждена</text>
</g>
<!-- p&#45;&gt;r -->
<g id="edge8" class="edge">
<title>p&#45;&gt;r</title>
<path fill="none" stroke="#466079" stroke-dasharray="5,2" d="M580.61,-109.51C712.55,-110.28 974.23,-111.8 1107.64,-112.57"/>
<polygon fill="#466079" stroke="#466079" points="1107.78,-116.07 1117.8,-112.63 1107.82,-109.07 1107.78,-116.07"/>
<text text-anchor="middle" x="853" y="-114.25" font-family="DejaVu Sans" font-size="11.00">Пропущен успех</text>
</g>
<!-- s&#45;&gt;r -->
<g id="edge5" class="edge">
<title>s&#45;&gt;r</title>
<path fill="none" stroke="#466079" d="M950.28,-151.57C1000.07,-143.57 1060.2,-133.91 1107.79,-126.26"/>
<polygon fill="#466079" stroke="#466079" points="1108.42,-129.7 1117.74,-124.66 1107.31,-122.79 1108.42,-129.7"/>
<text text-anchor="middle" x="1034" y="-150.25" font-family="DejaVu Sans" font-size="11.00">Возврат подтверждён</text>
</g>
</g>
</svg>
